<svg width="40" height="42" viewBox="0 0 40 42" fill="none" xmlns="http://www.w3.org/2000/svg">
<path opacity="0.5" d="M39.4119 1.15928L29.7667 38.6365C29.7177 38.8066 29.5215 38.8576 29.4071 38.7386L22.9497 32.0189L27.7886 13.2377C27.8377 13.0676 27.6905 12.9145 27.5271 12.9655L9.47905 18.0011L3.05436 11.3154C2.93992 11.1963 2.98896 10.9922 3.15244 10.9411L39.1504 0.887092C39.3138 0.853068 39.461 1.00618 39.4119 1.15928Z" fill="#00B37E"/>
<path opacity="0.5" d="M22.9493 32.0185L20.4645 41.7153C20.4154 41.8854 20.2192 41.9365 20.1048 41.8174L0.0623666 20.9778C-0.0520683 20.8587 -0.00302504 20.6546 0.160453 20.6036L9.47872 18.0007L22.9493 32.0185Z" fill="#00B37E"/>
<path d="M27.7878 13.2374L22.9489 32.0185L9.47824 18.0007L27.5262 12.9652C27.6897 12.9142 27.8369 13.0673 27.7878 13.2374Z" fill="#00B37E"/>
</svg>
